HIERARCHY
ROOT pelvis
{
  OFFSET 0 100 0
  CHANNELS 6 Xposition Yposition Zposition Zrotation Xrotation Yrotation
  JOINT pelvis_right_femur
  {
    OFFSET -10.78128 -3.44521 -0.5502486
    CHANNELS 3 Zrotation Xrotation Yrotation
    JOINT right_femur_tibia
    {
      OFFSET -0.8047443 -44.0398 -0.1307829
      CHANNELS 3 Zrotation Xrotation Yrotation
      JOINT right_tibia_foot
      {
        OFFSET 3.006224 -47.83518 -5
        CHANNELS 3 Zrotation Xrotation Yrotation
        End Site
        {
          OFFSET 0 -5 15
        }
      }
    }
  }
  JOINT pelvis_left_femur
  {
    OFFSET 10.78128 -3.44521 -0.5502486
    CHANNELS 3 Zrotation Xrotation Yrotation
    JOINT left_femur_tibia
    {
      OFFSET 0.8047443 -44.0398 -0.1307829
      CHANNELS 3 Zrotation Xrotation Yrotation
      JOINT left_tibia_foot
      {
        OFFSET -4.370144 -48.10324 -4.275266
        CHANNELS 3 Zrotation Xrotation Yrotation
        End Site
        {
          OFFSET 0 -5 15
        }
      }
    }
  }
  JOINT pelvis_spine1
  {
    OFFSET 0 6.468898 -3.129235
    CHANNELS 3 Zrotation Xrotation Yrotation
    JOINT spine1
    {
      OFFSET 0 23.15396 4.99043
      CHANNELS 3 Zrotation Xrotation Yrotation
      JOINT spine2
      {
        OFFSET 0 20.79997 -5.064912
        CHANNELS 3 Zrotation Xrotation Yrotation
        JOINT neck
        {
          OFFSET 0 14.38658 9.616178
          CHANNELS 3 Zrotation Xrotation Yrotation
          End Site
          {
            OFFSET 0 20 0
          }
        }
      }
      JOINT right_manubrium
      {
        OFFSET -5.722621 16.35077 3.967754
        CHANNELS 3 Zrotation Xrotation Yrotation
        JOINT right_clavicle
        {
          OFFSET -13.16364 1.694482 -4.693211
          CHANNELS 3 Zrotation Xrotation Yrotation
          JOINT right_humerus
          {
            OFFSET -28.5034 -0.3100689 -2.792744
            CHANNELS 3 Zrotation Xrotation Yrotation
            JOINT right_radius
            {
              OFFSET -25.15693 0.02248979 -1.271978
              CHANNELS 3 Zrotation Xrotation Yrotation
              End Site
              {
                OFFSET -15 0 0
              }
            }
          }
        }
      }
      JOINT left_manubrium
      {
        OFFSET 5.722621 16.35077 3.967754
        CHANNELS 3 Zrotation Xrotation Yrotation
        JOINT left_clavicle
        {
          OFFSET 13.16364 1.694482 -4.693211
          CHANNELS 3 Zrotation Xrotation Yrotation
          JOINT left_humerus
          {
            OFFSET 29.39168 -1.063119 -2.237045
            CHANNELS 3 Zrotation Xrotation Yrotation
            JOINT left_radius
            {
              OFFSET 24.59957 -0.9528479 0.9047498
              CHANNELS 3 Zrotation Xrotation Yrotation
              End Site
              {
                OFFSET 15 -0 -0
              }
            }
          }
        }
      }
    }
  }
}
MOTION
Frames: 21
Frame Time: 0.0416666666667
-246.8152 104.6811 2941.856 -2.921383 -8.851434 -23.88092 0.4072637 2.970116 -0.03669974 -0 53.25498 -0 -9.85366 15.05992 0.002017357 -5.514934 -1.403194 -10.34943 -0 16.35575 -0 -0.2603193 -12.164 19.52134 0.4663406 -0.689552 6.296498 0.5836398 13.09625 -6.269771 1.313883 22.1463 3.161081 0.1486085 -23.41206 6.428417 -5.766038 -27.71421 11.89994 93.60105 21.37329 -12.72236 -0 0 21.12828 -21.86096 8.508642 10.47461 3.435706 -19.98417 -3.347755 -92.65921 14.23213 30.53148 0 0 -5.82426 9.738056 14.48855 -2.417103
-248.3898 105.62 2946.844 -3.445149 -8.582633 -23.088 1.04102 -3.816308 -0.3093514 -0 50.57832 -0 -10.1123 13.39704 -0.5463496 -4.888354 2.631585 -10.34647 -0 14.53396 -0 -0.2813823 -13.31561 18.42024 0.4121464 -0.6410906 5.778396 0.8927412 13.20644 -6.747276 1.353415 22.39783 3.590565 0.5069707 -23.63888 6.700044 -5.657409 -26.60882 12.17601 94.48496 21.08619 -14.46558 -0 0 19.10606 -21.30523 8.216778 9.112029 3.802905 -20.92092 -3.543819 -91.84699 14.02745 27.85271 0 0 -7.473382 10.76368 15.18044 -4.078924
-249.8849 106.0102 2951.567 -3.615493 -8.113733 -22.50096 1.333302 -9.963086 -0.9914005 -0 43.78249 -0 -10.00862 10.2607 -1.070088 -4.519491 6.046073 -10.28929 -0 12.67055 -0 -0.3321024 -14.79725 17.37052 0.3660126 -0.6528102 5.250138 1.253754 13.27337 -7.262033 1.37978 22.60386 4.012381 0.8292338 -23.86045 6.972531 -5.558163 -25.54294 12.46329 95.32784 20.783 -16.24153 -0 0 17.10927 -20.69247 7.974102 7.718298 4.163138 -21.9164 -3.793729 -90.87114 13.67546 24.95974 0 0 -9.700366 11.94693 15.82778 -5.996566
-251.4031 105.7784 2956.216 -3.393476 -7.495997 -22.1159 1.282209 -15.28138 -2.078179 -0 34.59418 -0 -9.717409 7.099113 -1.391767 -4.490048 8.86632 -10.08035 -0 11.25514 -0 -0.1536144 -16.56065 16.45964 0.3275314 -0.7379354 4.753338 1.641981 13.28494 -7.773392 1.392048 22.76118 4.405614 1.098592 -24.06111 7.232238 -5.48764 -24.56963 12.74543 96.08482 20.49537 -17.97018 -0 0 15.22145 -20.07081 7.772323 6.36256 4.499613 -22.92887 -4.095919 -89.77233 13.1759 21.97678 0 0 -12.48479 13.24764 16.36668 -8.109115
-253.0308 104.978 2960.982 -2.862356 -6.740196 -21.87634 1.051239 -19.74125 -3.371681 -0 24.71178 -0 -9.330596 4.940405 -1.500199 -4.714293 11.16079 -9.617076 -0 10.64061 -0 0.2955025 -18.41036 15.65922 0.2918198 -0.8957474 4.322457 2.026404 13.23592 -8.239314 1.389649 22.87331 4.759271 1.311181 -24.2281 7.468382 -5.452221 -23.7182 13.00416 96.72178 20.25704 -19.57973 -0 0 13.50313 -19.49237 7.600922 5.114877 4.802568 -23.91225 -4.436619 -88.61799 12.5656 19.0444 0 0 -15.70678 14.58644 16.74231 -10.29517
-254.8358 103.752 2966.029 -2.166096 -5.882927 -21.69707 0.8624809 -23.25272 -4.600219 -0 15.51047 -0 -8.908227 4.218405 -1.49399 -5.051385 13.02355 -8.878841 -0 11.08449 -0 0.8181484 -20.0492 14.87885 0.2530173 -1.105385 3.978364 2.372451 13.13016 -8.622925 1.372138 22.94556 5.070172 1.473943 -24.35521 7.672749 -5.444986 -23.00282 13.21815 97.21698 20.09439 -20.99612 -0 0 12.00808 -19.00517 7.454423 4.050858 5.068165 -24.81022 -4.784525 -87.50307 11.92499 16.33493 0 0 -19.10776 15.83927 16.92424 -12.35927
-256.8727 102.3077 2971.475 -1.485484 -5.014142 -21.49204 0.9454391 -25.60038 -5.489713 -0 8.106057 -0 -8.534954 4.828525 -1.504709 -5.352719 14.54568 -7.948749 -0 12.85482 -0 1.072814 -21.08596 14.01705 0.2093171 -1.324983 3.724761 2.648291 12.98539 -8.901673 1.341519 22.98394 5.336734 1.599322 -24.44525 7.839333 -5.451574 -22.43258 13.3681 97.56614 20.01389 -22.14227 -0 0 10.79295 -18.64204 7.333792 3.23916 5.294717 -25.55868 -5.093142 -86.53893 11.36393 14.04704 0 0 -22.28577 16.86366 16.9289 -14.0672
-259.1804 100.9047 2977.37 -1.025246 -4.269227 -21.21157 1.499294 -26.51686 -5.803735 -0 3.407021 -0 -8.320172 6.21547 -1.637974 -5.476159 15.74609 -6.993738 -0 16.30673 -0 0.7517697 -21.06202 13.04088 0.1654928 -1.501645 3.55257 2.832291 12.8356 -9.072027 1.304867 22.99702 5.551316 1.697368 -24.50718 7.963318 -5.457907 -22.01946 13.44611 97.78173 19.99734 -22.94735 -0 0 9.916583 -18.41366 7.243926 2.720566 5.475366 -26.09586 -5.314869 -85.83172 10.98577 12.37608 0 0 -24.76546 17.54597 16.82435 -15.2194
-261.7656 99.83529 2983.665 -0.967244 -3.803448 -20.88524 2.606511 -25.83385 -5.414134 -0 1.929427 -0 -8.359756 7.515492 -1.935626 -5.313574 16.47399 -6.207349 -0 21.85182 -0 -0.2000739 -19.59449 12.09097 0.1312482 -1.591573 3.451999 2.91682 12.72472 -9.14471 1.273957 22.99658 5.696019 1.768532 -24.54754 8.03907 -5.456378 -21.77972 13.46067 97.8853 20.01151 -23.36381 -0 0 9.427608 -18.31254 7.19032 2.496487 5.59259 -26.37752 -5.421421 -85.45664 10.84624 11.47012 0 0 -26.1438 17.83732 16.70315 -15.71698
-264.5826 99.37172 2990.211 -1.375439 -3.755699 -20.6426 4.12055 -23.59356 -4.385397 -0 3.411867 -0 -8.680994 7.860663 -2.376176 -4.849804 16.3504 -5.721972 -0 29.72378 -0 -1.499228 -16.66425 11.49117 0.1172895 -1.579675 3.423044 2.906017 12.69093 -9.134027 1.261095 22.99368 5.746011 1.801804 -24.5627 8.058786 -5.449639 -21.7278 13.43065 97.89958 20.02489 -23.38465 -0 0 9.345102 -18.3259 7.176615 2.538016 5.622161 -26.39202 -5.416745 -85.43631 10.93366 11.38917 0 0 -26.24475 17.75367 16.63846 -15.57516
-267.528 99.67187 2996.782 -2.110341 -4.196023 -20.66712 5.648867 -20.0158 -2.973351 -0 6.619403 -0 -9.190621 6.784757 -2.911833 -4.210096 14.85361 -5.543038 -0 39.51721 -0 -2.724492 -12.84622 11.56055 0.1319775 -1.483911 3.475126 2.809966 12.75083 -9.049934 1.274178 22.99284 5.679117 1.779793 -24.53891 8.014132 -5.451248 -21.86829 13.372 97.84551 20.01875 -23.04665 -0 0 9.646928 -18.44592 7.203432 2.808072 5.544744 -26.16496 -5.332885 -85.73432 11.18513 12.09009 0 0 -25.17929 17.34637 16.65394 -14.88081
-270.4678 100.6879 3003.132 -2.864389 -5.066769 -21.08045 6.721022 -15.38465 -1.495057 -0 9.799454 -0 -9.675545 4.428201 -3.487561 -3.601088 11.57341 -5.570596 -0 49.78424 -0 -3.6129 -9.147227 12.38963 0.1795332 -1.340509 3.618391 2.639476 12.89588 -8.896531 1.314444 22.98989 5.484886 1.686996 -24.45992 7.900241 -5.481106 -22.19509 13.28937 97.73988 19.98916 -22.41026 -0 0 10.28196 -18.66978 7.269446 3.279942 5.353831 -25.74485 -5.212466 -86.27362 11.52491 13.4554 0 0 -23.25895 16.66955 16.72355 -13.73315
-273.2872 102.1508 3009.072 -3.339543 -6.166988 -21.84536 7.056186 -10.02128 -0.1744288 -0 11.61603 -0 -9.891644 1.332966 -4.011735 -3.143901 6.480744 -5.6771 -0 58.20136 -0 -4.13264 -6.473189 13.80849 0.2593033 -1.183801 3.857655 2.403912 13.10118 -8.673995 1.377197 22.97382 5.166768 1.515023 -24.31539 7.718303 -5.555888 -22.70072 13.17845 97.58687 19.94623 -21.5256 -0 0 11.20532 -18.99291 7.375533 3.943437 5.054749 -25.17652 -5.088845 -86.97331 11.89465 15.35516 0 0 -20.8293 15.76571 16.79205 -12.21171
-275.9234 103.6565 3014.532 -3.42064 -7.210089 -22.7858 6.716275 -4.332941 0.8962369 -0 11.75218 -0 -9.691308 -1.966187 -4.345818 -2.759465 0.01500295 -5.738799 -0 62.40351 -0 -4.368844 -5.191549 15.50872 0.3656554 -1.036985 4.192991 2.112679 13.33459 -8.381511 1.453054 22.92845 4.738583 1.262687 -24.10506 7.475053 -5.679375 -23.38639 13.03312 97.36554 19.91466 -20.40993 -0 0 12.41123 -19.40293 7.529714 4.800175 4.661592 -24.48279 -4.973031 -87.77772 12.25795 17.69445 0 0 -18.15191 14.67446 16.7965 -10.38706
-278.3637 104.8061 3019.579 -3.209361 -7.910929 -23.7011 6.038775 1.203024 1.681188 -0 10.76717 -0 -9.103997 -5.193591 -4.359956 -2.211488 -7.036923 -5.618082 -0 60.94569 -0 -4.427253 -5.09044 17.17179 0.4883099 -0.9150604 4.620495 1.77911 13.55792 -8.021453 1.52784 22.83304 4.222421 0.9348641 -23.83961 7.181473 -5.837555 -24.26074 12.85008 97.02485 19.9319 -19.05273 -0 0 13.93536 -19.87816 7.748075 5.852808 4.198775 -23.66668 -4.851141 -88.65865 12.58988 20.4101 0 0 -15.39369 13.45094 16.6794 -8.352799
-280.6294 105.3295 3024.381 -2.931221 -8.053996 -24.46954 5.431912 6.143724 2.139805 -0 9.546018 -0 -8.315358 -8.310796 -3.998309 -1.257314 -13.76268 -5.18425 -0 53.89234 -0 -4.392079 -5.604461 18.54279 0.6132536 -0.8305104 5.128232 1.423826 13.72481 -7.604216 1.582313 22.66587 3.651058 0.544047 -23.54056 6.85287 -6.000219 -25.32414 12.62996 96.49589 20.039 -17.44364 -0 0 15.81982 -20.39077 8.047639 7.091489 3.704659 -22.72923 -4.692208 -89.59698 12.87035 23.42668 0 0 -12.68062 12.17667 16.39783 -6.24675
-282.7671 105.1541 3029.149 -2.789489 -7.549888 -25.08095 5.148044 10.20488 2.250043 -0 8.78972 -0 -7.549715 -11.32155 -3.296913 0.1590472 -19.35787 -4.412569 -0 42.91364 -0 -4.298387 -6.108408 19.46268 0.7250578 -0.7945982 5.689865 1.074314 13.7865 -7.151189 1.595247 22.41426 3.070612 0.1139372 -23.23869 6.509975 -6.12994 -26.54539 12.37808 95.72478 20.26281 -15.61072 -0 0 18.05258 -20.91287 8.431092 8.478756 3.229702 -21.69198 -4.465755 -90.56065 13.08777 26.60766 0 0 -10.14934 10.95342 15.93528 -4.242025
-284.8427 104.4051 3034.088 -2.838274 -6.497832 -25.60895 5.13204 13.3534 2.06797 -0 8.779854 -0 -6.936683 -14.04403 -2.368098 1.745139 -23.31307 -3.504121 -0 30.84572 -0 -4.142348 -6.204852 19.89406 0.8105284 -0.8125736 6.261508 0.7590781 13.71158 -6.693357 1.552443 22.08875 2.537532 -0.3181259 -22.96895 6.179672 -6.197619 -27.84232 12.10675 94.71993 20.59585 -13.65374 -0 0 20.50658 -21.42045 8.870644 9.936094 2.824692 -20.61378 -4.165303 -91.49436 13.24765 29.73454 0 0 -7.957296 9.879078 15.31477 -2.503543
-286.9257 103.3356 3039.368 -2.952443 -5.224119 -26.15778 5.050682 15.81678 1.733698 -0 9.512514 -0 -6.470872 -15.97475 -1.383698 2.885402 -25.48955 -2.884534 -0 20.70067 -0 -3.940748 -5.914899 19.9465 0.8612246 -0.8757099 6.785962 0.4991505 13.51097 -6.265203 1.458462 21.73224 2.108007 -0.703493 -22.76179 5.893889 -6.197211 -29.08009 11.83735 93.58631 20.98859 -11.75053 -0 0 22.92109 -21.89119 9.305092 11.34092 2.524045 -19.5906 -3.823483 -92.33035 13.37558 32.53437 0 0 -6.238959 9.015817 14.60365 -1.130274
-289.0692 102.2242 3045.101 -2.933094 -4.219045 -26.7996 4.525376 17.93088 1.398511 -0 11.09405 -0 -6.098336 -16.35084 -0.5448921 2.952245 -26.03247 -2.991887 -0 14.45537 -0 -3.753073 -5.620998 19.86002 0.8733129 -0.9583076 7.205681 0.3031373 13.2441 -5.897057 1.340581 21.41216 1.823161 -0.9921768 -22.63539 5.68432 -6.148391 -30.09908 11.598 92.50839 21.36641 -10.11837 -0 0 24.9635 -22.29958 9.65776 12.5449 2.337197 -18.73159 -3.500942 -93.01427 13.5061 34.75018 0 0 -5.037301 8.3759 13.9018 -0.1314299
-291.3012 101.3028 3051.304 -2.678047 -3.929356 -27.50343 3.410697 19.83193 1.141257 -0 14.01818 -0 -5.835282 -14.45904 -0.006467287 1.71274 -25.16501 -3.991343 -0 12.34136 -0 -3.596898 -5.756596 19.89964 0.8478793 -1.026794 7.480494 0.169002 12.99158 -5.611057 1.236346 21.19458 1.697617 -1.148673 -22.59277 5.572288 -6.083631 -30.76798 11.41528 91.67697 21.66372 -8.944382 -0 0 26.35306 -22.61819 9.865318 13.414 2.255672 -18.12284 -3.252718 -93.52142 13.66278 36.21632 0 0 -4.283509 7.942039 13.3154 0.5343076
